<mxfile host="Electron" agent="Mozilla/5.0 (Windows NT 10.0; Win64; x64) AppleWebKit/537.36 (KHTML, like Gecko) draw.io/25.0.2 Chrome/128.0.6613.186 Electron/32.2.5 Safari/537.36" version="25.0.2">
  <diagram name="Страница — 1" id="oHQG5vfTPgr-ltf1fMh8">
    <mxGraphModel dx="2117" dy="717" grid="1" gridSize="10" guides="1" tooltips="1" connect="1" arrows="1" fold="1" page="1" pageScale="1" pageWidth="827" pageHeight="1169" math="0" shadow="0">
      <root>
        <mxCell id="0" />
        <mxCell id="1" parent="0" />
        <mxCell id="im5jBuMFkXl8Msu0jibj-6" style="edgeStyle=orthogonalEdgeStyle;rounded=0;orthogonalLoop=1;jettySize=auto;html=1;exitX=0.5;exitY=1;exitDx=0;exitDy=0;exitPerimeter=0;entryX=0.5;entryY=0;entryDx=0;entryDy=0;" parent="1" source="im5jBuMFkXl8Msu0jibj-1" target="im5jBuMFkXl8Msu0jibj-5" edge="1">
          <mxGeometry relative="1" as="geometry" />
        </mxCell>
        <mxCell id="im5jBuMFkXl8Msu0jibj-1" value="Начало" style="strokeWidth=2;html=1;shape=mxgraph.flowchart.start_1;whiteSpace=wrap;" parent="1" vertex="1">
          <mxGeometry x="364" y="10" width="100" height="60" as="geometry" />
        </mxCell>
        <mxCell id="im5jBuMFkXl8Msu0jibj-2" value="" style="strokeWidth=2;html=1;shape=mxgraph.flowchart.annotation_2;align=left;labelPosition=right;pointerEvents=1;" parent="1" vertex="1">
          <mxGeometry x="470" y="70" width="50" height="100" as="geometry" />
        </mxCell>
        <mxCell id="im5jBuMFkXl8Msu0jibj-3" value="&lt;div style=&quot;text-align: justify;&quot;&gt;#include &amp;lt;iostream&amp;gt;&lt;/div&gt;&lt;div style=&quot;text-align: justify;&quot;&gt;#include &amp;lt;cmath&amp;gt;&lt;/div&gt;&lt;div style=&quot;text-align: justify;&quot;&gt;using namespace std;&lt;/div&gt;&lt;div style=&quot;text-align: justify;&quot;&gt;const double PI = 3.14159265;&lt;/div&gt;" style="text;html=1;align=center;verticalAlign=middle;resizable=0;points=[];autosize=1;strokeColor=none;fillColor=none;" parent="1" vertex="1">
          <mxGeometry x="500" y="80" width="190" height="70" as="geometry" />
        </mxCell>
        <mxCell id="im5jBuMFkXl8Msu0jibj-4" value="" style="endArrow=none;dashed=1;html=1;rounded=0;entryX=0.5;entryY=1;entryDx=0;entryDy=0;entryPerimeter=0;exitX=0;exitY=0.5;exitDx=0;exitDy=0;exitPerimeter=0;" parent="1" source="im5jBuMFkXl8Msu0jibj-2" target="im5jBuMFkXl8Msu0jibj-1" edge="1">
          <mxGeometry width="50" height="50" relative="1" as="geometry">
            <mxPoint x="360" y="150" as="sourcePoint" />
            <mxPoint x="410" y="100" as="targetPoint" />
            <Array as="points">
              <mxPoint x="414" y="120" />
            </Array>
          </mxGeometry>
        </mxCell>
        <mxCell id="im5jBuMFkXl8Msu0jibj-10" style="edgeStyle=orthogonalEdgeStyle;rounded=0;orthogonalLoop=1;jettySize=auto;html=1;exitX=0.5;exitY=1;exitDx=0;exitDy=0;entryX=0.5;entryY=0;entryDx=0;entryDy=0;" parent="1" source="im5jBuMFkXl8Msu0jibj-5" target="im5jBuMFkXl8Msu0jibj-7" edge="1">
          <mxGeometry relative="1" as="geometry" />
        </mxCell>
        <mxCell id="im5jBuMFkXl8Msu0jibj-5" value="int main()" style="shape=process;whiteSpace=wrap;html=1;backgroundOutline=1;" parent="1" vertex="1">
          <mxGeometry x="354" y="140" width="120" height="60" as="geometry" />
        </mxCell>
        <mxCell id="im5jBuMFkXl8Msu0jibj-11" style="edgeStyle=orthogonalEdgeStyle;rounded=0;orthogonalLoop=1;jettySize=auto;html=1;exitX=0.5;exitY=1;exitDx=0;exitDy=0;entryX=0.5;entryY=0;entryDx=0;entryDy=0;" parent="1" source="im5jBuMFkXl8Msu0jibj-7" target="im5jBuMFkXl8Msu0jibj-8" edge="1">
          <mxGeometry relative="1" as="geometry" />
        </mxCell>
        <mxCell id="im5jBuMFkXl8Msu0jibj-7" value="setlocale(LC_ALL, &quot;RU&quot;);" style="rounded=0;whiteSpace=wrap;html=1;" parent="1" vertex="1">
          <mxGeometry x="354" y="220" width="120" height="60" as="geometry" />
        </mxCell>
        <mxCell id="im5jBuMFkXl8Msu0jibj-12" style="edgeStyle=orthogonalEdgeStyle;rounded=0;orthogonalLoop=1;jettySize=auto;html=1;exitX=0.5;exitY=1;exitDx=0;exitDy=0;entryX=0.5;entryY=0;entryDx=0;entryDy=0;" parent="1" source="im5jBuMFkXl8Msu0jibj-8" target="im5jBuMFkXl8Msu0jibj-9" edge="1">
          <mxGeometry relative="1" as="geometry" />
        </mxCell>
        <mxCell id="im5jBuMFkXl8Msu0jibj-8" value="&lt;div&gt;&lt;font style=&quot;font-size: 10px;&quot;&gt;double x, a, b, sumE, k;&amp;nbsp;&lt;span style=&quot;background-color: initial;&quot;&gt;int m;&lt;/span&gt;&lt;/font&gt;&lt;/div&gt;&lt;div&gt;&lt;font style=&quot;font-size: 10px;&quot;&gt;a = 0.1;&amp;nbsp;&lt;/font&gt;&lt;span style=&quot;font-size: 10px; background-color: initial;&quot;&gt;b = 1;&amp;nbsp;&lt;/span&gt;&lt;span style=&quot;font-size: 10px; background-color: initial;&quot;&gt;k = 10;&amp;nbsp;&lt;/span&gt;&lt;span style=&quot;font-size: 10px; background-color: initial;&quot;&gt;x = 0.1;&lt;/span&gt;&lt;/div&gt;" style="rounded=0;whiteSpace=wrap;html=1;" parent="1" vertex="1">
          <mxGeometry x="354" y="300" width="120" height="60" as="geometry" />
        </mxCell>
        <mxCell id="im5jBuMFkXl8Msu0jibj-15" style="edgeStyle=orthogonalEdgeStyle;rounded=0;orthogonalLoop=1;jettySize=auto;html=1;exitX=0.5;exitY=1;exitDx=0;exitDy=0;entryX=0.5;entryY=0;entryDx=0;entryDy=0;" parent="1" source="im5jBuMFkXl8Msu0jibj-9" target="im5jBuMFkXl8Msu0jibj-13" edge="1">
          <mxGeometry relative="1" as="geometry" />
        </mxCell>
        <mxCell id="im5jBuMFkXl8Msu0jibj-9" value="while (x &amp;lt;= b)" style="rhombus;whiteSpace=wrap;html=1;" parent="1" vertex="1">
          <mxGeometry x="374" y="400" width="80" height="50" as="geometry" />
        </mxCell>
        <mxCell id="im5jBuMFkXl8Msu0jibj-16" style="edgeStyle=orthogonalEdgeStyle;rounded=0;orthogonalLoop=1;jettySize=auto;html=1;exitX=0.5;exitY=1;exitDx=0;exitDy=0;entryX=0.5;entryY=0;entryDx=0;entryDy=0;" parent="1" source="im5jBuMFkXl8Msu0jibj-13" target="im5jBuMFkXl8Msu0jibj-14" edge="1">
          <mxGeometry relative="1" as="geometry" />
        </mxCell>
        <mxCell id="im5jBuMFkXl8Msu0jibj-13" value="cout &amp;lt;&amp;lt; &quot;X=&amp;nbsp; &quot; &amp;lt;&amp;lt; x &amp;lt;&amp;lt; &quot;&amp;nbsp; Сумма N=&amp;nbsp; &quot; &amp;lt;&amp;lt; SummaN(x) &amp;lt;&amp;lt; &quot;&amp;nbsp; Сумма E=&amp;nbsp; &quot; &amp;lt;&amp;lt; SummaE(x) &amp;lt;&amp;lt; &quot;&amp;nbsp; f(x)=&amp;nbsp; &quot; &amp;lt;&amp;lt; f(x) &amp;lt;&amp;lt; endl;" style="shape=parallelogram;perimeter=parallelogramPerimeter;whiteSpace=wrap;html=1;fixedSize=1;" parent="1" vertex="1">
          <mxGeometry x="354" y="470" width="120" height="60" as="geometry" />
        </mxCell>
        <mxCell id="im5jBuMFkXl8Msu0jibj-17" style="edgeStyle=orthogonalEdgeStyle;rounded=0;orthogonalLoop=1;jettySize=auto;html=1;exitX=0.5;exitY=1;exitDx=0;exitDy=0;entryX=0;entryY=0.5;entryDx=0;entryDy=0;" parent="1" source="im5jBuMFkXl8Msu0jibj-14" target="im5jBuMFkXl8Msu0jibj-9" edge="1">
          <mxGeometry relative="1" as="geometry">
            <mxPoint x="414" y="380" as="targetPoint" />
            <Array as="points">
              <mxPoint x="414" y="630" />
              <mxPoint x="270" y="630" />
              <mxPoint x="270" y="425" />
            </Array>
          </mxGeometry>
        </mxCell>
        <mxCell id="im5jBuMFkXl8Msu0jibj-14" value="x += (b - a) / k;" style="rounded=0;whiteSpace=wrap;html=1;" parent="1" vertex="1">
          <mxGeometry x="354" y="550" width="120" height="60" as="geometry" />
        </mxCell>
        <mxCell id="im5jBuMFkXl8Msu0jibj-18" value="return 0;" style="strokeWidth=2;html=1;shape=mxgraph.flowchart.start_1;whiteSpace=wrap;" parent="1" vertex="1">
          <mxGeometry x="454" y="660" width="100" height="60" as="geometry" />
        </mxCell>
        <mxCell id="im5jBuMFkXl8Msu0jibj-19" style="edgeStyle=orthogonalEdgeStyle;rounded=0;orthogonalLoop=1;jettySize=auto;html=1;exitX=1;exitY=0.5;exitDx=0;exitDy=0;entryX=0.5;entryY=0;entryDx=0;entryDy=0;entryPerimeter=0;" parent="1" source="im5jBuMFkXl8Msu0jibj-9" target="im5jBuMFkXl8Msu0jibj-18" edge="1">
          <mxGeometry relative="1" as="geometry" />
        </mxCell>
        <mxCell id="-3EKZQkHABsc9x4DQvBj-1" value="double f(double x)" style="shape=process;whiteSpace=wrap;html=1;backgroundOutline=1;" parent="1" vertex="1">
          <mxGeometry x="120" y="140" width="120" height="60" as="geometry" />
        </mxCell>
        <mxCell id="-3EKZQkHABsc9x4DQvBj-2" value="return exp(x * cos(PI / 4)) * cos(x * sin(PI / 4));" style="strokeWidth=2;html=1;shape=mxgraph.flowchart.start_1;whiteSpace=wrap;" parent="1" vertex="1">
          <mxGeometry x="130" y="220" width="100" height="60" as="geometry" />
        </mxCell>
        <mxCell id="-3EKZQkHABsc9x4DQvBj-3" style="edgeStyle=orthogonalEdgeStyle;rounded=0;orthogonalLoop=1;jettySize=auto;html=1;exitX=0.5;exitY=1;exitDx=0;exitDy=0;entryX=0.5;entryY=0;entryDx=0;entryDy=0;entryPerimeter=0;" parent="1" source="-3EKZQkHABsc9x4DQvBj-1" target="-3EKZQkHABsc9x4DQvBj-2" edge="1">
          <mxGeometry relative="1" as="geometry" />
        </mxCell>
        <mxCell id="-3EKZQkHABsc9x4DQvBj-7" style="edgeStyle=orthogonalEdgeStyle;rounded=0;orthogonalLoop=1;jettySize=auto;html=1;exitX=0.5;exitY=1;exitDx=0;exitDy=0;entryX=0.5;entryY=0;entryDx=0;entryDy=0;" parent="1" source="-3EKZQkHABsc9x4DQvBj-4" target="-3EKZQkHABsc9x4DQvBj-5" edge="1">
          <mxGeometry relative="1" as="geometry" />
        </mxCell>
        <mxCell id="-3EKZQkHABsc9x4DQvBj-4" value="double SummaN(double x)" style="shape=process;whiteSpace=wrap;html=1;backgroundOutline=1;" parent="1" vertex="1">
          <mxGeometry x="-90" y="140" width="120" height="60" as="geometry" />
        </mxCell>
        <mxCell id="-3EKZQkHABsc9x4DQvBj-8" style="edgeStyle=orthogonalEdgeStyle;rounded=0;orthogonalLoop=1;jettySize=auto;html=1;exitX=0.5;exitY=1;exitDx=0;exitDy=0;entryX=0.5;entryY=0;entryDx=0;entryDy=0;" parent="1" source="-3EKZQkHABsc9x4DQvBj-5" edge="1">
          <mxGeometry relative="1" as="geometry">
            <mxPoint x="-30" y="300" as="targetPoint" />
          </mxGeometry>
        </mxCell>
        <mxCell id="-3EKZQkHABsc9x4DQvBj-5" value="&lt;div&gt;int m;&lt;/div&gt;&lt;div&gt;double sumN = 1;&lt;/div&gt;" style="rounded=0;whiteSpace=wrap;html=1;" parent="1" vertex="1">
          <mxGeometry x="-90" y="220" width="120" height="60" as="geometry" />
        </mxCell>
        <mxCell id="-3EKZQkHABsc9x4DQvBj-13" style="edgeStyle=orthogonalEdgeStyle;rounded=0;orthogonalLoop=1;jettySize=auto;html=1;exitX=0.5;exitY=1;exitDx=0;exitDy=0;entryX=0.5;entryY=0;entryDx=0;entryDy=0;" parent="1" source="-3EKZQkHABsc9x4DQvBj-9" target="-3EKZQkHABsc9x4DQvBj-10" edge="1">
          <mxGeometry relative="1" as="geometry" />
        </mxCell>
        <mxCell id="-3EKZQkHABsc9x4DQvBj-9" value="for (int n = m = 1; n &amp;lt;= 25; n++)" style="shape=hexagon;perimeter=hexagonPerimeter2;whiteSpace=wrap;html=1;fixedSize=1;" parent="1" vertex="1">
          <mxGeometry x="-90" y="300" width="120" height="80" as="geometry" />
        </mxCell>
        <mxCell id="-3EKZQkHABsc9x4DQvBj-14" style="edgeStyle=orthogonalEdgeStyle;rounded=0;orthogonalLoop=1;jettySize=auto;html=1;exitX=0.5;exitY=1;exitDx=0;exitDy=0;entryX=0.5;entryY=0;entryDx=0;entryDy=0;" parent="1" source="-3EKZQkHABsc9x4DQvBj-10" target="-3EKZQkHABsc9x4DQvBj-11" edge="1">
          <mxGeometry relative="1" as="geometry" />
        </mxCell>
        <mxCell id="-3EKZQkHABsc9x4DQvBj-10" value="m *= n;" style="rounded=0;whiteSpace=wrap;html=1;" parent="1" vertex="1">
          <mxGeometry x="-90" y="400" width="120" height="60" as="geometry" />
        </mxCell>
        <mxCell id="-3EKZQkHABsc9x4DQvBj-15" style="edgeStyle=orthogonalEdgeStyle;rounded=0;orthogonalLoop=1;jettySize=auto;html=1;exitX=0.5;exitY=1;exitDx=0;exitDy=0;entryX=0;entryY=0.5;entryDx=0;entryDy=0;" parent="1" source="-3EKZQkHABsc9x4DQvBj-11" target="-3EKZQkHABsc9x4DQvBj-9" edge="1">
          <mxGeometry relative="1" as="geometry" />
        </mxCell>
        <mxCell id="-3EKZQkHABsc9x4DQvBj-11" value="sumN += ((cos(n * PI / 4)) / m) * pow(x, n);" style="rounded=0;whiteSpace=wrap;html=1;" parent="1" vertex="1">
          <mxGeometry x="-90" y="480" width="120" height="60" as="geometry" />
        </mxCell>
        <mxCell id="-3EKZQkHABsc9x4DQvBj-12" value="return sumN;" style="strokeWidth=2;html=1;shape=mxgraph.flowchart.start_1;whiteSpace=wrap;" parent="1" vertex="1">
          <mxGeometry x="10" y="570" width="100" height="60" as="geometry" />
        </mxCell>
        <mxCell id="-3EKZQkHABsc9x4DQvBj-16" style="edgeStyle=orthogonalEdgeStyle;rounded=0;orthogonalLoop=1;jettySize=auto;html=1;exitX=1;exitY=0.5;exitDx=0;exitDy=0;entryX=0.5;entryY=0;entryDx=0;entryDy=0;entryPerimeter=0;" parent="1" source="-3EKZQkHABsc9x4DQvBj-9" target="-3EKZQkHABsc9x4DQvBj-12" edge="1">
          <mxGeometry relative="1" as="geometry" />
        </mxCell>
        <mxCell id="-3EKZQkHABsc9x4DQvBj-17" style="edgeStyle=orthogonalEdgeStyle;rounded=0;orthogonalLoop=1;jettySize=auto;html=1;exitX=0.5;exitY=1;exitDx=0;exitDy=0;entryX=0.5;entryY=0;entryDx=0;entryDy=0;" parent="1" source="-3EKZQkHABsc9x4DQvBj-18" target="-3EKZQkHABsc9x4DQvBj-20" edge="1">
          <mxGeometry relative="1" as="geometry" />
        </mxCell>
        <mxCell id="-3EKZQkHABsc9x4DQvBj-18" value="double SummaE(double x)" style="shape=process;whiteSpace=wrap;html=1;backgroundOutline=1;" parent="1" vertex="1">
          <mxGeometry x="-320" y="140" width="120" height="60" as="geometry" />
        </mxCell>
        <mxCell id="-3EKZQkHABsc9x4DQvBj-19" style="edgeStyle=orthogonalEdgeStyle;rounded=0;orthogonalLoop=1;jettySize=auto;html=1;exitX=0.5;exitY=1;exitDx=0;exitDy=0;entryX=0.5;entryY=0;entryDx=0;entryDy=0;" parent="1" source="-3EKZQkHABsc9x4DQvBj-20" edge="1">
          <mxGeometry relative="1" as="geometry">
            <mxPoint x="-260" y="300" as="targetPoint" />
          </mxGeometry>
        </mxCell>
        <mxCell id="-3EKZQkHABsc9x4DQvBj-20" value="&lt;div&gt;double sumE = 1;&lt;/div&gt;&lt;div&gt;double a = 1;&lt;/div&gt;" style="rounded=0;whiteSpace=wrap;html=1;" parent="1" vertex="1">
          <mxGeometry x="-320" y="220" width="120" height="60" as="geometry" />
        </mxCell>
        <mxCell id="-3EKZQkHABsc9x4DQvBj-21" style="edgeStyle=orthogonalEdgeStyle;rounded=0;orthogonalLoop=1;jettySize=auto;html=1;exitX=0.5;exitY=1;exitDx=0;exitDy=0;entryX=0.5;entryY=0;entryDx=0;entryDy=0;" parent="1" source="-3EKZQkHABsc9x4DQvBj-22" target="-3EKZQkHABsc9x4DQvBj-24" edge="1">
          <mxGeometry relative="1" as="geometry" />
        </mxCell>
        <mxCell id="-3EKZQkHABsc9x4DQvBj-22" value="for (int i = 1; a &amp;gt; 1e-4; i++)" style="shape=hexagon;perimeter=hexagonPerimeter2;whiteSpace=wrap;html=1;fixedSize=1;" parent="1" vertex="1">
          <mxGeometry x="-320" y="300" width="120" height="80" as="geometry" />
        </mxCell>
        <mxCell id="-3EKZQkHABsc9x4DQvBj-23" style="edgeStyle=orthogonalEdgeStyle;rounded=0;orthogonalLoop=1;jettySize=auto;html=1;exitX=0.5;exitY=1;exitDx=0;exitDy=0;entryX=0.5;entryY=0;entryDx=0;entryDy=0;" parent="1" source="-3EKZQkHABsc9x4DQvBj-24" target="-3EKZQkHABsc9x4DQvBj-26" edge="1">
          <mxGeometry relative="1" as="geometry" />
        </mxCell>
        <mxCell id="-3EKZQkHABsc9x4DQvBj-24" value="a *= 1.0 * x / i;" style="rounded=0;whiteSpace=wrap;html=1;" parent="1" vertex="1">
          <mxGeometry x="-320" y="400" width="120" height="60" as="geometry" />
        </mxCell>
        <mxCell id="-3EKZQkHABsc9x4DQvBj-25" style="edgeStyle=orthogonalEdgeStyle;rounded=0;orthogonalLoop=1;jettySize=auto;html=1;exitX=0.5;exitY=1;exitDx=0;exitDy=0;entryX=0;entryY=0.5;entryDx=0;entryDy=0;" parent="1" source="-3EKZQkHABsc9x4DQvBj-26" target="-3EKZQkHABsc9x4DQvBj-22" edge="1">
          <mxGeometry relative="1" as="geometry" />
        </mxCell>
        <mxCell id="-3EKZQkHABsc9x4DQvBj-26" value="sumE += (cos(i * PI / 4)) * a;" style="rounded=0;whiteSpace=wrap;html=1;" parent="1" vertex="1">
          <mxGeometry x="-320" y="480" width="120" height="60" as="geometry" />
        </mxCell>
        <mxCell id="-3EKZQkHABsc9x4DQvBj-27" value="return sumE;" style="strokeWidth=2;html=1;shape=mxgraph.flowchart.start_1;whiteSpace=wrap;" parent="1" vertex="1">
          <mxGeometry x="-220" y="570" width="100" height="60" as="geometry" />
        </mxCell>
        <mxCell id="-3EKZQkHABsc9x4DQvBj-28" style="edgeStyle=orthogonalEdgeStyle;rounded=0;orthogonalLoop=1;jettySize=auto;html=1;exitX=1;exitY=0.5;exitDx=0;exitDy=0;entryX=0.5;entryY=0;entryDx=0;entryDy=0;entryPerimeter=0;" parent="1" source="-3EKZQkHABsc9x4DQvBj-22" target="-3EKZQkHABsc9x4DQvBj-27" edge="1">
          <mxGeometry relative="1" as="geometry" />
        </mxCell>
        <mxCell id="-3EKZQkHABsc9x4DQvBj-29" value="{" style="text;html=1;align=center;verticalAlign=middle;resizable=0;points=[];autosize=1;strokeColor=none;fillColor=none;" parent="1" vertex="1">
          <mxGeometry x="-375" y="308" width="30" height="30" as="geometry" />
        </mxCell>
        <mxCell id="-3EKZQkHABsc9x4DQvBj-30" value="}" style="text;html=1;align=center;verticalAlign=middle;resizable=0;points=[];autosize=1;strokeColor=none;fillColor=none;" parent="1" vertex="1">
          <mxGeometry x="-215" y="538" width="30" height="30" as="geometry" />
        </mxCell>
        <mxCell id="-3EKZQkHABsc9x4DQvBj-31" value="{" style="text;html=1;align=center;verticalAlign=middle;resizable=0;points=[];autosize=1;strokeColor=none;fillColor=none;" parent="1" vertex="1">
          <mxGeometry x="-130" y="308" width="30" height="30" as="geometry" />
        </mxCell>
        <mxCell id="-3EKZQkHABsc9x4DQvBj-32" value="}" style="text;html=1;align=center;verticalAlign=middle;resizable=0;points=[];autosize=1;strokeColor=none;fillColor=none;" parent="1" vertex="1">
          <mxGeometry x="5" y="538" width="30" height="30" as="geometry" />
        </mxCell>
        <mxCell id="-3EKZQkHABsc9x4DQvBj-33" value="{" style="text;html=1;align=center;verticalAlign=middle;resizable=0;points=[];autosize=1;strokeColor=none;fillColor=none;" parent="1" vertex="1">
          <mxGeometry x="-385" y="158" width="30" height="30" as="geometry" />
        </mxCell>
        <mxCell id="-3EKZQkHABsc9x4DQvBj-34" value="}" style="text;html=1;align=center;verticalAlign=middle;resizable=0;points=[];autosize=1;strokeColor=none;fillColor=none;" parent="1" vertex="1">
          <mxGeometry x="-165" y="648" width="30" height="30" as="geometry" />
        </mxCell>
        <mxCell id="-3EKZQkHABsc9x4DQvBj-35" value="{" style="text;html=1;align=center;verticalAlign=middle;resizable=0;points=[];autosize=1;strokeColor=none;fillColor=none;" parent="1" vertex="1">
          <mxGeometry x="-135" y="168" width="30" height="30" as="geometry" />
        </mxCell>
        <mxCell id="-3EKZQkHABsc9x4DQvBj-36" value="}" style="text;html=1;align=center;verticalAlign=middle;resizable=0;points=[];autosize=1;strokeColor=none;fillColor=none;" parent="1" vertex="1">
          <mxGeometry x="95" y="608" width="30" height="30" as="geometry" />
        </mxCell>
        <mxCell id="-3EKZQkHABsc9x4DQvBj-37" value="{" style="text;html=1;align=center;verticalAlign=middle;resizable=0;points=[];autosize=1;strokeColor=none;fillColor=none;" parent="1" vertex="1">
          <mxGeometry x="85" y="148" width="30" height="30" as="geometry" />
        </mxCell>
        <mxCell id="-3EKZQkHABsc9x4DQvBj-38" value="}" style="text;html=1;align=center;verticalAlign=middle;resizable=0;points=[];autosize=1;strokeColor=none;fillColor=none;" parent="1" vertex="1">
          <mxGeometry x="225" y="258" width="30" height="30" as="geometry" />
        </mxCell>
        <mxCell id="-3EKZQkHABsc9x4DQvBj-39" value="{" style="text;html=1;align=center;verticalAlign=middle;resizable=0;points=[];autosize=1;strokeColor=none;fillColor=none;" parent="1" vertex="1">
          <mxGeometry x="285" y="158" width="30" height="30" as="geometry" />
        </mxCell>
        <mxCell id="-3EKZQkHABsc9x4DQvBj-40" value="}" style="text;html=1;align=center;verticalAlign=middle;resizable=0;points=[];autosize=1;strokeColor=none;fillColor=none;" parent="1" vertex="1">
          <mxGeometry x="565" y="668" width="30" height="30" as="geometry" />
        </mxCell>
        <mxCell id="-3EKZQkHABsc9x4DQvBj-41" value="{" style="text;html=1;align=center;verticalAlign=middle;resizable=0;points=[];autosize=1;strokeColor=none;fillColor=none;" parent="1" vertex="1">
          <mxGeometry x="315" y="428" width="30" height="30" as="geometry" />
        </mxCell>
        <mxCell id="-3EKZQkHABsc9x4DQvBj-42" value="}" style="text;html=1;align=center;verticalAlign=middle;resizable=0;points=[];autosize=1;strokeColor=none;fillColor=none;" parent="1" vertex="1">
          <mxGeometry x="445" y="618" width="30" height="30" as="geometry" />
        </mxCell>
      </root>
    </mxGraphModel>
  </diagram>
</mxfile>
